<svg id="Capa_1" data-name="Capa 1" xmlns="http://www.w3.org/2000/svg" viewBox="0 0 877.87 812.18">
  <defs>
    <style>
      .cls-1 {
        fill: #15809a;
      }

      .cls-2 {
        fill: #17819b;
      }

      .cls-3 {
        fill: #178099;
      }

      .cls-4 {
        fill: #16809a;
      }

      .cls-5 {
        fill: #168199;
      }
    </style>
  </defs>
  <title>LogoAmom</title>
  <path class="cls-1" d="M878.68,454V812.56H4.7c-4.28,0-3.8.65-3.8-3.83q0-175.54,0-351.08c0-1.2-.05-2.4-.08-3.6a8.34,8.34,0,0,1,2.86-.21H876.06A7.71,7.71,0,0,1,878.68,454ZM589.87,661.38l.41.18c0,6.31.16,12.62,0,18.93-.37,12-7.1,21.14-18.4,25.25a43.77,43.77,0,0,1-22.68,1.88c-7-1.19-13.56-3.67-19.1-8.34a32.23,32.23,0,0,1-6.31-7.18c-.5-.78-1-.92-1.7-.29-1.73,1.43-3.47,2.84-5.29,4.14-1.06.76-1,1.36-.3,2.34a43.89,43.89,0,0,0,18.85,15.82,50.24,50.24,0,0,0,16.56,3.59A59.66,59.66,0,0,0,578,714.2c11.41-4.43,19.24-12.35,22.93-24.15a44.42,44.42,0,0,0,1.57-13.28q0-44,0-88.07c0-.56,0-1.13,0-1.68.07-1-.43-1.41-1.43-1.39-2.4,0-4.8,0-7.2,0-2.25,0-2.27,0-2.27,2.2,0,4.88,0,9.76,0,14.64a2.94,2.94,0,0,1-.31,1.93c-.6-.75-1.1-1.36-1.58-2a54.21,54.21,0,0,0-6.26-6.94c-4.37-4.06-9.07-7.63-14.85-9.45-17.82-5.6-36.26.7-46.8,16.76-9.44,14.38-11.29,30.06-5.7,46.35a45,45,0,0,0,23.26,26.55c16.29,8.1,37.36,3,48.52-11.72C588.57,663.12,589.22,662.25,589.87,661.38Zm-339.61-57a4.74,4.74,0,0,1-1.76-2,45,45,0,0,0-15.38-13.86c-14.63-7.9-35.45-6-48.81,10.6A50.88,50.88,0,0,0,173,632c0,13.94,4.71,26,14.7,35.82,7.71,7.54,17,12,27.9,12.19,14,.29,25.19-5.52,33.85-16.42a11,11,0,0,1,1.88-2.38c.57.54.34,1.13.35,1.64,0,2.16,0,4.32,0,6.48a8.67,8.67,0,0,0,3.74,7.16c3,2.33,6.44,2.58,10,2a1.26,1.26,0,0,0,1.17-1.48c0-2.72,0-5.44,0-8.16,0-.72-.15-1.16-1-1.32-2.38-.45-3.19-2.17-3.27-4.38,0-1,0-1.91,0-2.87V551.78c0-.64,0-1.28,0-1.92,0-.88-.27-1.33-1.22-1.32q-4.8,0-9.6,0c-.95,0-1.29.39-1.25,1.28,0,.64,0,1.28,0,1.92v52.62ZM296,636.66a6,6,0,0,1,3-.3h74.39c1.87,0,1.93-.05,2-1.85a56.92,56.92,0,0,0-1.42-15,47.06,47.06,0,0,0-15.29-24.93A43.54,43.54,0,0,0,328,584.11c-12.79.43-23.67,5.33-32.2,14.81-11.36,12.63-14.7,27.6-11.25,44,4.22,20.05,20.77,35.37,40.84,36.92,12.36.94,23.65-1.94,33.49-9.72a32.09,32.09,0,0,0,9.58-11.81c.61-1.32.59-1.37-.81-1.77-2.54-.71-5.11-1.31-7.62-2.1a1.41,1.41,0,0,0-2,.91,18,18,0,0,1-3.89,5.44c-9.83,9.35-21.34,12.31-34.27,8.21-9.87-3.13-16.45-10.16-20.68-19.47A36.23,36.23,0,0,1,296,636.66Zm344.48-30.6a6.42,6.42,0,0,1-.3-2.74c0-5.28,0-10.56,0-15.84,0-1.8,0-1.82-1.9-1.84q-3.59,0-7.19,0c-1.89,0-1.89,0-1.94,1.81,0,.32,0,.64,0,1v87.1c0,.48,0,1,0,1.44-.06.91.33,1.29,1.25,1.28,3.2,0,6.4,0,9.6,0,.95,0,1.28-.39,1.23-1.28,0-.64,0-1.28,0-1.92,0-16.88,0-33.75,0-50.63a14.77,14.77,0,0,1,1.28-6.27c4.83-10.69,12.65-18.1,23.91-21.7a27,27,0,0,1,11.36-1.18c7.59.87,12.28,5.28,14.68,12.34a50.08,50.08,0,0,1,2.43,16.06c.06,15.19,0,30.39,0,45.58,0,2.32,0,4.64,0,7,0,2,0,2,1.93,2q4.06,0,8.15,0c2,0,2,0,2-2,0-18.72,0-37.43-.09-56.14a60.65,60.65,0,0,0-2.9-18.65c-3.47-10.57-11.26-16.75-22-17.31-13.05-.66-24.33,3.62-33.92,12.45A44.73,44.73,0,0,0,640.47,606.06Zm-188.15-2.28c1.79-2.16,3.49-4.26,5.24-6.32.59-.7.24-1.13-.25-1.62a28.9,28.9,0,0,0-5.84-4.56C438,583.35,423.72,582,409,586.67c-12.5,4-19.42,14.22-18.85,26.91.29,6.49,3.08,11.46,8.85,14.65a53.72,53.72,0,0,0,9.25,3.92c8.06,2.66,16.38,4.29,24.53,6.6a37.33,37.33,0,0,1,10.58,4.4c2.84,1.86,5.05,4.26,5.54,7.75.81,5.79-.69,10.79-5.38,14.55A22.76,22.76,0,0,1,433,670a47,47,0,0,1-31.12-4.91A63.56,63.56,0,0,1,392.7,659c-1.31-1-1.35-1-2.33.43q-1.77,2.58-3.49,5.17c-1,1.57-1,1.59.48,2.85a46.82,46.82,0,0,0,7.31,5A62,62,0,0,0,422.18,680a51.26,51.26,0,0,0,20.07-2.68c10-3.63,18.28-11.32,18.56-24.19.18-7.9-2.83-14-9.7-18-1-.61-2.1-1.15-3.17-1.68-5.42-2.67-11.25-4.11-17-5.66-5-1.34-10.07-2.52-15.08-3.89a33.36,33.36,0,0,1-9.29-3.77,9.24,9.24,0,0,1-4.34-5.53c-1.57-6.15.09-13.5,6.58-17.63a19.66,19.66,0,0,1,6.36-2.71,42.72,42.72,0,0,1,29.56,3.83A34.73,34.73,0,0,1,452.32,603.78Zm40.37,28.06v-31c0-4.32,0-8.64,0-13,0-2.26,0-2.27-2.18-2.28q-3.48,0-7,0c-3.14,0-2.94-.39-2.94,3q0,43.32,0,86.64c0,.56,0,1.12,0,1.68,0,.86.25,1.31,1.22,1.3,3.2,0,6.4,0,9.6,0,.91,0,1.33-.34,1.27-1.27,0-.56,0-1.12,0-1.68Zm0-74.29c0-2.4,0-4.79,0-7.19,0-1.75-.05-1.79-1.68-1.8-2.95,0-5.9,0-8.86,0-1.1,0-1.57.31-1.56,1.48q.06,7.43,0,14.85c0,1.19.48,1.5,1.57,1.48,3-.05,5.91,0,8.87,0,1.61,0,1.64-.06,1.66-1.82C492.71,562.18,492.69,559.86,492.69,557.55Z" transform="translate(-0.81 -0.4)"/>
  <path class="cls-2" d="M411.64.4c1.62,4.1,2.29,8.44,3.27,12.7,7.49,32.63,15,65.27,22,98,5.69,26.48,11.28,53,16.55,79.56,3.76,19,7.59,37.92,11.24,56.91,3.06,15.93,5.92,31.9,8.86,47.85,1,5.66,2,11.34,3.13,17a7.12,7.12,0,0,1-2.23,7.11q-18.52,18.14-36.28,37a6.84,6.84,0,0,1-2.95,2.09c-9.94-56.5-19.41-112.94-30.24-169.39a4.14,4.14,0,0,0-2,3c-3.2,11.56-6.48,23.08-9.58,34.66q-14.53,54.17-29,108.37A12.47,12.47,0,0,1,363,339.3c-.81,1.17-1.7,1.19-2.42,0a13.14,13.14,0,0,1-1.11-2.65c-13.4-41.52-27.49-82.8-41.8-124-1.45-4.15-3-8.27-4.46-12.41a1.3,1.3,0,0,0-.76-.88,5.81,5.81,0,0,0-1.14,3.37c-.67,9.09-1.31,18.18-2,27.27q-1.32,17.7-2.69,35.4-1.05,13.75-2.08,27.51c-.89,11.56-1.83,23.12-2.7,34.68-.58,7.9-1.08,15.8-1.6,23.7a31.9,31.9,0,0,1-.78,5.93c-.36,1.38-.81,1.55-2,.88a7.25,7.25,0,0,1-1.14-.86c-10.92-9-22.12-17.68-34.21-25.1a12.9,12.9,0,0,1-6.66-11.44,121.34,121.34,0,0,1,1.33-21c2.29-15.18,5.3-30.23,7.29-45.45,1.27-9.75,2.4-19.52,3.56-29.28,1.08-9.13,2.11-18.27,3.18-27.4q1.77-15.12,3.57-30.25,2-16.9,4.12-33.8c1.32-10.71,2.62-21.42,4-32.12,1.49-11.58,3.06-23.14,4.61-34.71q2-15.09,4.05-30.18,1.5-11.18,3.05-22.34a15.21,15.21,0,0,1,.39-2.12,1.8,1.8,0,0,1,1.64-1.52,1.66,1.66,0,0,1,1.61,1.21c.35.81.66,1.63,1,2.45Q322.15,73.62,343,134c5.31,15.33,10.5,30.69,15.76,46,.25.74.57,1.46.89,2.29a2.64,2.64,0,0,0,1.67-2.23q21.85-88.42,46.94-176A16.7,16.7,0,0,1,409.72.4ZM361.29,245.31c-.34-.89-.69-1.77-1-2.66-16.18-44.8-32.61-89.5-50.33-133.72q-3.69-9.23-7.45-18.44c-.17-.41-.21-1.06-.82-1s-.91.56-1,1.14-.18,1.11-.24,1.67c-.43,4-.84,8.11-1.28,12.16C298.11,114,297,123.49,296,133s-2,19.08-3.08,28.61c-1.2,11.13-2.43,22.26-3.62,33.39s-2.37,22.26-3.54,33.39q-1.83,17.42-3.64,34.82-1.68,16.47-3.29,32.94c-.31,3.1-.55,6.21-.78,9.32a4.11,4.11,0,0,0,1.64,4,20.38,20.38,0,0,0,4.62,2.32c6.46-63.59,12.91-127,20.87-190.43a4.43,4.43,0,0,1,1.41,2.3c5.12,11.81,9.79,23.8,14.36,35.82q19.46,51.21,37.39,103c1.25,3.61,2.67,7.16,4,10.83,1-.77.94-1.83,1.18-2.71q12.09-44.16,24.13-88.33c5.87-21.42,12.08-42.75,18.82-63.92.25-.81.27-1.81,1.2-2.51.23,1,.42,1.74.61,2.51q8.91,38,17,76.26,8,37.76,15.59,75.6,2.56,12.94,5.19,25.86c.34,1.68.88,1.93,2.17.89a27.89,27.89,0,0,0,3.26-3.17,4,4,0,0,0,.83-3.84c-.5-1.86-.76-3.76-1.14-5.64-2.32-11.59-4.62-23.19-7-34.78-4.07-20.13-8.07-40.27-12.29-60.37-4.6-21.9-9.38-43.75-14.15-65.61-2.79-12.81-5.73-25.58-8.59-38.36-.21-.94-.37-1.9-1.71-2.13C391.44,137,376.58,191.1,361.29,245.31Z" transform="translate(-0.81 -0.4)"/>
  <path class="cls-2" d="M836,359.29c-8.74-31.24-13.68-62.88-18.52-94.71a3.58,3.58,0,0,0-2.69,2c-3.68,5.62-7.39,11.22-11,16.88-12.39,19.41-24,39.28-35.66,59.16-.53.89-.93,1.87-1.52,2.72-1.08,1.58-2.72,1.44-3.57-.27a6.57,6.57,0,0,1-.39-1.13c-6.3-22.88-12.57-45.77-17.58-69q-4-18.39-8-36.78c-.18-.84-.4-1.68-.64-2.63-1.44.52-1.8,1.7-2.1,2.82-10.19,37.72-21.11,75.24-31.59,112.87a37.73,37.73,0,0,1-1.86,6.19c-.8,1.68-1.18,1.79-2.72.84a17.09,17.09,0,0,1-1.53-1.16L667.48,334a16.66,16.66,0,0,1-3-2.78,9.91,9.91,0,0,1-1.69-7.75,72.4,72.4,0,0,1,4.24-16.94c14.5-36.92,26.19-74.81,39-112.29q18-52.4,38.33-103.91c.55-1.41,1.12-2.82,1.73-4.2.22-.5.54-1.09,1.17-1.08A1.82,1.82,0,0,1,749,86.24a9.72,9.72,0,0,1,.5,1.85c6.15,34.21,12.3,68.42,19.16,102.5q4.7,23.39,9.77,46.7c.4,1.87,1,3.7,1.49,5.65,1.05-.34,1.28-1.26,1.7-1.94,7.18-11.73,14.3-23.5,21.78-35.05a453.23,453.23,0,0,1,27-37.86,2.69,2.69,0,0,1,.3-.37c.57-.49.74-1.61,1.76-1.37a2.63,2.63,0,0,1,1.94,2.24c.39,1.95.71,3.93,1,5.91,3.38,22.77,7.06,45.48,11.63,68.05,5.22,25.79,11.49,51.31,20.25,76.15,2.56,7.24,5.3,14.4,8.36,21.44.22.52.43,1,.62,1.56.6,1.63.58,1.72-1,2.21-2.06.63-4.15,1.17-6.21,1.82a222.06,222.06,0,0,0-30.62,12.43C837.69,358.51,837,358.83,836,359.29Zm-9.1-151.62-1.57,1.94c-9.59,12.1-18.44,24.75-26.9,37.66-7.67,11.7-15,23.64-22.34,35.53a5.51,5.51,0,0,1-1.66,2.12c-12.53-45.6-22.34-91.58-32.43-137.7a5.64,5.64,0,0,0-2,3.21c-2,5.91-4,11.82-6,17.72q-23.87,70.11-45.41,141a16.61,16.61,0,0,0-1,4.18,2.9,2.9,0,0,0,1.22,2.71,9.43,9.43,0,0,0,3.83,1.79,7.18,7.18,0,0,0,.9-2.28c8.63-27.43,17.29-54.86,26.3-82.18q9.49-28.78,19.64-57.37a3.25,3.25,0,0,1,1.21-2.09c.25,1,.48,1.69.65,2.45,5.2,22.74,10.45,45.47,15.91,68.15q6.78,28.2,14.57,56.14c.19.66,0,1.61,1,2.05.46-.73.89-1.4,1.3-2.08,8.9-14.71,17.87-29.37,27.33-43.72,6-9.15,12.24-18.18,18.83-26.93a27,27,0,0,1,4-4.38,1.55,1.55,0,0,1,.59,1.13c2.68,15.19,5.62,30.32,8.71,45.43q5.82,28.42,14,56.26c.84,2.84,2.15,3.39,4.84,2.21a1.86,1.86,0,0,0,1.3-2.25,31.06,31.06,0,0,0-.77-3q-4.49-14.67-8.31-29.53c-6.54-25.64-11.34-51.65-15.91-77.7C828.16,214.81,827.56,211.52,826.87,207.67Z" transform="translate(-0.81 -0.4)"/>
  <path class="cls-3" d="M669.6,162a294.09,294.09,0,0,1-10.75,79.6,246,246,0,0,1-17.71,46c-7.56,14.69-16.95,28-29,39.43a82.24,82.24,0,0,1-24.86,16.48q-23.73,9.9-45.66-3.52a65,65,0,0,1-16.88-15.14C515,312.64,508,299,502.83,284.32c-5.28-15-8.59-30.43-11.12-46.07a278.58,278.58,0,0,1-3.6-44.66c0-10.56.69-21.1,1.57-31.62.92-10.92,2.21-21.8,4-32.6,3.88-22.94,9.88-45.27,19.65-66.46,6.56-14.22,15.09-27.09,26.66-37.78a62.74,62.74,0,0,1,20.36-12.84c10.64-4,21.36-4.1,32.24-1,22.66,6.39,39.7,20.06,52,39.93a155.07,155.07,0,0,1,18.06,44A236.64,236.64,0,0,1,669,136.31C669.64,144.86,669.7,153.41,669.6,162Zm-21.43,7.14c-.23-8-.68-17.63-1.69-27.26A241.28,241.28,0,0,0,638.63,100c-3.78-13.09-8.54-25.79-15.72-37.46-4.09-6.63-8.74-12.82-14.8-17.82a32.69,32.69,0,0,0-22.79-7.91,38.8,38.8,0,0,0-19.57,6.46,77.05,77.05,0,0,0-23.56,24.22,188.87,188.87,0,0,0-19,40.5,217.21,217.21,0,0,0-11.74,66.32,257.34,257.34,0,0,0,3.88,48,265.41,265.41,0,0,0,13.94,51.51,142.52,142.52,0,0,0,18.78,34.68,39.43,39.43,0,0,0,14.46,12.33,20.82,20.82,0,0,0,16.09,1,38.33,38.33,0,0,0,11.62-6.58c7.54-6,13.42-13.46,19-21.22a204.91,204.91,0,0,0,18.31-32A210.51,210.51,0,0,0,648.17,169.11Z" transform="translate(-0.81 -0.4)"/>
  <path class="cls-2" d="M134.05,356.72a4.54,4.54,0,0,1-1.36-2.05q-10.11-20.81-20.21-41.62c-.2-.43-.41-.87-.64-1.29-1.12-2-2.13-2.49-4.33-2.06-.78.15-1.55.38-2.32.58C89,314.52,72.91,318.84,56.73,323A7.75,7.75,0,0,0,50.51,329c-2.44,8.77-4.9,17.54-8,26.13-.06.15-.09.31-.14.46-.8,2-.37,2.56-2.85,1.14-6.11-3.49-12.29-6.85-18.61-9.94a133.2,133.2,0,0,0-15.48-6.43,4.52,4.52,0,0,1-1.95-.9,9.92,9.92,0,0,1,1.34-3.05,362,362,0,0,0,20.82-47.88c5.53-15.77,10.18-31.81,14.37-48,6.86-26.46,12.57-53.18,17.87-80,1.18-6,2.33-11.92,3.51-17.88a6.84,6.84,0,0,1,1-2.93c1-1.39,1.78-1.42,3,0,2.3,2.77,4.63,5.52,6.81,8.38C89.8,171.31,105.25,195.86,119.8,221c15.42,26.64,29.68,53.91,43.73,81.29,1.06,2.06,2.1,4.13,3.21,6.17a8.28,8.28,0,0,1-.91,10c-7.07,8.79-13.92,17.75-21.29,26.29C141.09,348.74,137.59,352.68,134.05,356.72Zm4.71-42.3c1-1,1.92-2.1,2.93-3.1a3.84,3.84,0,0,0,.79-4.82c-.32-.65-.62-1.3-.95-1.93-8.67-16.4-17.43-32.75-26.47-48.94q-20.13-36.06-43.67-70c-1.06-1.52-2.16-1.63-3.59-.39a6.3,6.3,0,0,0-1.7,3.62c-1,4.44-2,8.9-2.94,13.34-5,22.88-10.26,45.68-16.72,68.2a559,559,0,0,1-21,59.41c-1,2.45-1.4,2.1,1.3,3.55l.21.11c2.21,1.05,2.93.85,3.93-1.39A104.41,104.41,0,0,0,36.14,319a10.18,10.18,0,0,1,7.19-7.29q38.48-12.66,76.9-25.47c2.66-.88,3.06-.7,4.35,1.77q6.31,12.11,12.66,24.22C137.63,313,137.82,313.88,138.76,314.42Z" transform="translate(-0.81 -0.4)"/>
  <path class="cls-2" d="M238.92,214c0,.24.05.48.05.72.11,2.77-.29,3.35-3,4-5,1.25-9.93,2.4-14.87,3.7-15.69,4.12-31.1,9.16-46.47,14.32-1,.33-2,.67-3,.92-1.36.33-1.75.13-2-1.27-.52-3.48-1-7-1.41-10.45q-2.1-16.65-4.18-33.3c-.37-2.93-.78-5.86-1.08-8.8s.12-3.76,3.06-4.8c15.5-5.51,31-10.89,46.85-15.46,6-1.72,12-3.32,18-5,1.7-.47,2.06-.27,2.56,1.44a39.74,39.74,0,0,1,.9,7.13c1.14,11.45,2.22,22.9,3.31,34.36q.6,6.21,1.19,12.41Zm-13.09-21.69a28,28,0,0,0-.64-6.13c-.47-2.13-.92-2.34-3-1.75-13,3.64-25.79,7.86-38.54,12.26a21.88,21.88,0,0,0-3.94,1.72,4.19,4.19,0,0,0-2.26,4.16,32.48,32.48,0,0,0,1,5.88c.47,2.05.79,2.22,2.78,1.57,13.35-4.38,26.94-8,40.44-11.79C226.72,196.8,226,196.8,225.83,192.31Z" transform="translate(-0.81 -0.4)"/>
  <path class="cls-4" d="M590.38,632.44c0,3.84-.09,7.68,0,11.52a15.29,15.29,0,0,1-1.94,7.8c-8.34,15.55-30.33,24.89-48.64,10.6-11.32-8.83-15.61-20.87-14.08-35A38.5,38.5,0,0,1,535,605.62c9.77-11.18,24.1-14,37.4-7.3a37.21,37.21,0,0,1,16.83,16.83,10.4,10.4,0,0,1,1.19,5.06C590.32,624.28,590.38,628.36,590.38,632.44Z" transform="translate(-0.81 -0.4)"/>
  <path class="cls-4" d="M250.27,632.25c0,3.75-.1,7.51,0,11.27a18.1,18.1,0,0,1-4.16,12.2c-6.46,8.09-14.9,12.81-25.21,13.55a29.7,29.7,0,0,1-21.15-7c-9.72-7.82-14.41-18.14-14.33-30.55.07-10.38,3.38-19.62,10.62-27.23,5.87-6.18,13.07-9.65,21.68-9.77a31.47,31.47,0,0,1,18.8,6.21,37,37,0,0,1,12.94,15.11,8.42,8.42,0,0,1,.8,3.7C250.23,623.93,250.27,628.09,250.27,632.25Z" transform="translate(-0.81 -0.4)"/>
  <path class="cls-2" d="M329.75,627.11H297.6c-1.75-.06-1.8-.06-1.66-1.75a35,35,0,0,1,3.21-12c5.71-12.11,15.24-19,28.64-19.7,13.95-.76,24.28,5.54,31.28,17.46a35,35,0,0,1,4.5,13.81c.25,2.12.21,2.16-1.92,2.16Z" transform="translate(-0.81 -0.4)"/>
  <path class="cls-5" d="M641.58,172.26a184.56,184.56,0,0,1-7.83,50.47,219.28,219.28,0,0,1-24.11,53.89,110.89,110.89,0,0,1-17.1,21.57,44.69,44.69,0,0,1-8.21,6.2c-8.42,4.94-16.45,4.1-24.16-1.65-5.47-4.08-9.57-9.37-13.34-15a134.81,134.81,0,0,1-14.6-29.34,222.67,222.67,0,0,1-10.41-37.6,253.87,253.87,0,0,1-3.19-25.93c-.43-5.91-.63-11.82-.72-17.74-.38-25.15,4.93-49.2,14.5-72.36,4.16-10.07,9-19.79,15.56-28.57,5.64-7.58,12.25-14.16,20.51-18.87,8.9-5.08,18.29-6.52,28.15-3.16,5.92,2,10.53,5.94,14.63,10.54,6,6.76,10.32,14.59,14,22.8a179.45,179.45,0,0,1,13,45A255.16,255.16,0,0,1,641.58,172.26ZM616.5,158.83a152.42,152.42,0,0,0-2.29-35.55A105.45,105.45,0,0,0,607.86,101c-2.77-6.42-6.68-12-12.53-16-7.08-4.87-14.84-4.93-22-.24a30.74,30.74,0,0,0-5.47,4.65c-6,6.27-9.72,13.82-12.68,21.82a191.65,191.65,0,0,0-9.72,40.71A325.23,325.23,0,0,0,542.78,187a267.67,267.67,0,0,0,3.77,51.58,84.39,84.39,0,0,0,8.08,25.48,33.46,33.46,0,0,0,9.22,11.21,11.61,11.61,0,0,0,8.55,2.4,27.79,27.79,0,0,0,19.27-10.47c5.07-6.12,8.4-13.17,11-20.61A237.42,237.42,0,0,0,613.61,199,374.84,374.84,0,0,0,616.5,158.83Z" transform="translate(-0.81 -0.4)"/>
  <path class="cls-2" d="M69.5,199.49a28.42,28.42,0,0,1,4.12,4.81c6.74,9.15,12.91,18.68,19,28.28,8.06,12.78,16,25.65,23,39,.79,1.48,1.49,3,2.36,4.74-25.37,9.28-50.64,18.42-75.87,28.22a6.57,6.57,0,0,1,.66-3.26c5.31-16.67,10.37-33.42,14.49-50.42,4-16.38,7.76-32.81,11.63-49.21C69.05,201.05,69.24,200.44,69.5,199.49Zm1.88,29.11c-.52,2.61-1,5-1.47,7.46-2.44,12.14-4.32,24.39-7.11,36.46a36.69,36.69,0,0,0-1.19,8.29c0,1.27.34,1.55,1.55,1.25a6.29,6.29,0,0,0,1.11-.45l21.61-9.8c1.38-.63,2.82-1.14,4.15-1.86,2.06-1.11,2.1-1.39,1-3.5q-9.14-18-18.29-35.88A4,4,0,0,0,71.38,228.6Z" transform="translate(-0.81 -0.4)"/>
</svg>
